# xmcd CD database file
#
# Track frame offsets:
#	150
#	7569
#	20040
#	29014
#	36996
#	46213
#	55695
#	67751
#	75209
#	85956
#	97491
#	108921
#	116213
#	127245
#
# Disc length: 1837 seconds
#
# Revision: 0
# Processed by: cddbd v1.5.1PL2 Copyright (c) Steve Scherf et al.
# Submitted via: CDex 1.51
#
DISCID=b2072b0e
DTITLE=THE MILKSHAKES - after school session
DYEAR=1983
DGENRE=Rock and Roll
TTITLE0=Shimmy Shake
TTITLE1=I Can Tell
TTITLE2=Tell Me Child
TTITLE3=Goodbye Girl
TTITLE4=More Honey
TTITLE5=Soldiers Of Love
TTITLE6=El Salvador
TTITLE7=Let's Stomp
TTITLE8=Hide And Scatter
TTITLE9=Jaguar
TTITLE10=That Girl Of Mine
TTITLE11=You Can Only Lose
TTITLE12=Little Minnie
TTITLE13=Cadillac
EXTD=YEAR: 1983
EXTT0=
EXTT1=
EXTT2=
EXTT3=
EXTT4=
EXTT5=
EXTT6=
EXTT7=
EXTT8=
EXTT9=
EXTT10=
EXTT11=
EXTT12=
EXTT13=
PLAYORDER=
